<?xml version="1.0" encoding="utf-8"?>
<!-- Generator: Adobe Illustrator 16.0.0, SVG Export Plug-In . SVG Version: 6.00 Build 0)  -->
<!DOCTYPE svg PUBLIC "-//W3C//DTD SVG 1.1//EN" "http://www.w3.org/Graphics/SVG/1.1/DTD/svg11.dtd">
<svg version="1.1" id="Layer_1" xmlns="http://www.w3.org/2000/svg" xmlns:xlink="http://www.w3.org/1999/xlink" x="0px" y="0px"
	 width="265px" height="37px" viewBox="0 0 265 37" enable-background="new 0 0 265 37" xml:space="preserve">
<g>
	<g>
		<polyline fill="#17FFC8" points="38,0 38,37 2,37 		"/>
		<polygon fill="#FF9E17" points="2,34.586 19.825,16.437 2,0.232 		"/>
	</g>
	<path fill="#FFFFFF" d="M81.894,18.862c0,2.631-0.455,5.034-1.363,7.21c-0.909,2.178-2.169,4.041-3.782,5.59
		c-1.613,1.551-3.531,2.75-5.755,3.595c-2.224,0.847-4.635,1.269-7.234,1.269c-2.6,0-5.003-0.422-7.211-1.269
		c-2.208-0.845-4.119-2.044-5.731-3.595c-1.613-1.549-2.873-3.412-3.782-5.59c-0.909-2.176-1.362-4.579-1.362-7.21
		c0-2.662,0.454-5.065,1.362-7.211c0.909-2.145,2.168-3.97,3.782-5.473c1.612-1.503,3.523-2.662,5.731-3.476
		C58.757,1.888,61.16,1.48,63.76,1.48c2.599,0,5.01,0.407,7.234,1.222c2.224,0.814,4.142,1.972,5.755,3.476
		c1.612,1.503,2.873,3.328,3.782,5.473C81.439,13.797,81.894,16.201,81.894,18.862z M73.296,18.862c0-1.44-0.234-2.787-0.704-4.04
		c-0.47-1.252-1.121-2.326-1.95-3.218c-0.83-0.893-1.832-1.598-3.006-2.115c-1.174-0.517-2.466-0.775-3.875-0.775
		s-2.694,0.258-3.852,0.775c-1.159,0.517-2.161,1.222-3.007,2.115c-0.845,0.892-1.496,1.965-1.95,3.218
		c-0.455,1.253-0.681,2.6-0.681,4.04c0,1.503,0.235,2.889,0.704,4.158c0.47,1.269,1.12,2.355,1.95,3.264
		c0.83,0.909,1.825,1.621,2.983,2.139c1.158,0.517,2.443,0.775,3.852,0.775s2.692-0.259,3.852-0.775
		c1.158-0.518,2.16-1.229,3.006-2.139c0.846-0.908,1.503-1.995,1.974-3.264C73.062,21.751,73.296,20.365,73.296,18.862z"/>
	<path fill="#FFFFFF" d="M118.253,18.909c0,2.914-0.54,5.426-1.621,7.54c-1.081,2.114-2.506,3.853-4.275,5.214
		c-1.77,1.364-3.766,2.367-5.989,3.008c-2.224,0.643-4.479,0.964-6.765,0.964H87.201V2.373h12.026c2.349,0,4.667,0.275,6.953,0.822
		c2.286,0.549,4.322,1.457,6.107,2.725c1.785,1.268,3.225,2.967,4.322,5.096C117.705,13.146,118.253,15.778,118.253,18.909z
		 M109.891,18.909c0-1.879-0.305-3.437-0.916-4.674c-0.611-1.237-1.425-2.224-2.443-2.96c-1.018-0.735-2.177-1.26-3.476-1.574
		c-1.3-0.312-2.639-0.469-4.016-0.469h-3.994v19.448h3.805c1.44,0,2.827-0.165,4.158-0.493c1.331-0.33,2.505-0.87,3.523-1.621
		c1.018-0.751,1.832-1.754,2.443-3.006C109.586,22.308,109.891,20.758,109.891,18.909z"/>
	<path fill="#FFFFFF" d="M150.737,28.562c-0.675,1.645-1.638,3.054-2.891,4.229c-1.252,1.174-2.763,2.091-4.532,2.747
		c-1.77,0.658-3.735,0.987-5.896,0.987c-2.192,0-4.165-0.329-5.918-0.987c-1.755-0.656-3.242-1.573-4.463-2.747
		c-1.221-1.175-2.161-2.584-2.819-4.229c-0.658-1.644-0.986-3.468-0.986-5.473V2.373h7.986v20.06c0,0.909,0.118,1.771,0.353,2.583
		c0.235,0.815,0.595,1.543,1.081,2.186c0.485,0.642,1.128,1.15,1.926,1.526c0.799,0.375,1.762,0.563,2.889,0.563
		c1.128,0,2.09-0.188,2.889-0.563c0.801-0.376,1.448-0.885,1.95-1.526c0.501-0.643,0.861-1.37,1.081-2.186
		c0.219-0.812,0.327-1.674,0.327-2.583V2.373h8.035V23.09C151.748,25.095,151.41,26.919,150.737,28.562z"/>
	<path fill="#FFFFFF" d="M158.229,35.634V2.373h8.08v26.26h12.872v7.001H158.229z"/>
	<path fill="#FFFFFF" d="M182.939,35.634V2.373h8.079v33.261H182.939z"/>
	<path fill="#FFFFFF" d="M215.446,11.017c-0.688-0.876-1.59-1.574-2.7-2.09c-1.112-0.517-2.186-0.775-3.219-0.775
		c-0.532,0-1.072,0.046-1.62,0.141c-0.549,0.095-1.043,0.275-1.48,0.541c-0.438,0.266-0.807,0.61-1.103,1.033
		c-0.299,0.423-0.447,0.963-0.447,1.621c0,0.564,0.117,1.033,0.352,1.409c0.235,0.375,0.579,0.705,1.033,0.986
		c0.454,0.282,0.994,0.541,1.622,0.775c0.626,0.234,1.33,0.478,2.114,0.728c1.126,0.376,2.302,0.792,3.523,1.246
		c1.222,0.455,2.332,1.057,3.335,1.809c1.001,0.751,1.831,1.683,2.489,2.794c0.657,1.111,0.986,2.498,0.986,4.157
		c0,1.911-0.352,3.563-1.057,4.957c-0.705,1.393-1.653,2.544-2.842,3.453c-1.191,0.907-2.554,1.58-4.088,2.02
		c-1.534,0.438-3.115,0.657-4.743,0.657c-2.381,0-4.683-0.416-6.906-1.245c-2.225-0.829-4.072-2.012-5.544-3.547l5.261-5.355
		c0.814,1.003,1.888,1.841,3.219,2.513c1.331,0.675,2.653,1.011,3.971,1.011c0.594,0,1.174-0.062,1.736-0.188
		c0.563-0.125,1.057-0.329,1.48-0.611c0.423-0.281,0.759-0.658,1.01-1.127c0.249-0.47,0.376-1.033,0.376-1.691
		c0-0.627-0.156-1.158-0.471-1.597c-0.312-0.438-0.759-0.838-1.339-1.198c-0.579-0.359-1.299-0.688-2.159-0.987
		c-0.861-0.297-1.841-0.617-2.937-0.962c-1.064-0.345-2.107-0.751-3.124-1.222c-1.018-0.47-1.926-1.072-2.725-1.809
		c-0.799-0.735-1.44-1.628-1.927-2.677c-0.486-1.049-0.727-2.326-0.727-3.829c0-1.848,0.375-3.43,1.127-4.745
		c0.751-1.316,1.737-2.396,2.958-3.241c1.222-0.846,2.6-1.464,4.134-1.856c1.534-0.391,3.085-0.587,4.652-0.587
		c1.878,0,3.796,0.344,5.754,1.033c1.956,0.689,3.671,1.708,5.145,3.055L215.446,11.017z"/>
	<path fill="#FFFFFF" d="M255.799,35.634l0.188-23.536h-0.142l-8.644,23.536h-5.638l-8.408-23.536h-0.141l0.188,23.536h-7.563V2.373
		h11.43l7.572,21.327h0.188l7.242-21.327h11.619v33.261H255.799z"/>
</g>
</svg>
